solid OpenSCAD_Model
  facet normal -1 0 0
    outer loop
      vertex -0.2 -0.2 0.8
      vertex -0.2 -0.2 1
      vertex -0.2 4.2 0.8
    endloop
  endfacet
  facet normal -1 0 0
    outer loop
      vertex -0.2 4.2 0.8
      vertex -0.2 -0.2 1
      vertex -0.2 4.2 1
    endloop
  endfacet
  facet normal 0 -1 0
    outer loop
      vertex -0.2 -0.2 1
      vertex -0.2 -0.2 0.8
      vertex 3.2 -0.2 0.8
    endloop
  endfacet
  facet normal 0 -1 0
    outer loop
      vertex 3.2 -0.2 1
      vertex -0.2 -0.2 1
      vertex 3.2 -0.2 0.8
    endloop
  endfacet
  facet normal 0 0 -1
    outer loop
      vertex 3.2 -0.1 0.8
      vertex 3.2 -0.2 0.8
      vertex -0.1 -0.1 0.8
    endloop
  endfacet
  facet normal 0 0 -1
    outer loop
      vertex 3.2 4.1 0.8
      vertex -0.2 4.2 0.8
      vertex 3.2 4.2 0.8
    endloop
  endfacet
  facet normal 0 0 -1
    outer loop
      vertex -0.1 4.1 0.8
      vertex -0.2 4.2 0.8
      vertex 3.2 4.1 0.8
    endloop
  endfacet
  facet normal 0 0 -1
    outer loop
      vertex -0.2 -0.2 0.8
      vertex -0.2 4.2 0.8
      vertex -0.1 -0.1 0.8
    endloop
  endfacet
  facet normal 0 0 -1
    outer loop
      vertex -0.2 -0.2 0.8
      vertex -0.1 -0.1 0.8
      vertex 3.2 -0.2 0.8
    endloop
  endfacet
  facet normal 0 0 -1
    outer loop
      vertex -0.1 -0.1 0.8
      vertex -0.2 4.2 0.8
      vertex -0.1 4.1 0.8
    endloop
  endfacet
  facet normal 0 1 0
    outer loop
      vertex -0.2 4.2 0.8
      vertex -0.2 4.2 1
      vertex 3.2 4.2 0.8
    endloop
  endfacet
  facet normal 0 1 0
    outer loop
      vertex 3.2 4.2 0.8
      vertex -0.2 4.2 1
      vertex 3.2 4.2 1
    endloop
  endfacet
  facet normal 0 0 1
    outer loop
      vertex 0 0 1
      vertex -0.2 -0.2 1
      vertex 3.2 -0.2 1
    endloop
  endfacet
  facet normal 0 0 1
    outer loop
      vertex 3 4 1
      vertex 3.2 1 1
      vertex 3.2 2 1
    endloop
  endfacet
  facet normal 0 0 1
    outer loop
      vertex 3 4 1
      vertex 3.2 0.8 1
      vertex 3.2 1 1
    endloop
  endfacet
  facet normal 0 0 1
    outer loop
      vertex 4 0 1
      vertex 3.8 0.8 1
      vertex 3.8 -0.2 1
    endloop
  endfacet
  facet normal 0 0 1
    outer loop
      vertex 5 0 1
      vertex 4 0 1
      vertex 5.2 -0.2 1
    endloop
  endfacet
  facet normal 0 0 1
    outer loop
      vertex 6 0 1
      vertex 5.8 0.8 1
      vertex 5.8 -0.2 1
    endloop
  endfacet
  facet normal 0 0 1
    outer loop
      vertex 1.8 1 1
      vertex 1.8 0 1
      vertex 2 0 1
    endloop
  endfacet
  facet normal 0 0 1
    outer loop
      vertex 1 0 1
      vertex 0 0 1
      vertex 3.2 -0.2 1
    endloop
  endfacet
  facet normal 0 0 1
    outer loop
      vertex -0.2 4.2 1
      vertex -0.2 -0.2 1
      vertex 0 0 1
    endloop
  endfacet
  facet normal 0 0 1
    outer loop
      vertex 1 4 1
      vertex 1.2 1.2 1
      vertex 1.2 2.8 1
    endloop
  endfacet
  facet normal 0 0 1
    outer loop
      vertex 1.2 2.8 1
      vertex 1.8 2.8 1
      vertex 1.2 3 1
    endloop
  endfacet
  facet normal 0 0 1
    outer loop
      vertex 3.2 4.2 1
      vertex -0.2 4.2 1
      vertex 1 4 1
    endloop
  endfacet
  facet normal 0 0 1
    outer loop
      vertex 1.2 0 1
      vertex 1 0 1
      vertex 3.2 -0.2 1
    endloop
  endfacet
  facet normal 0 0 1
    outer loop
      vertex 1 4 1
      vertex 1.2 1 1
      vertex 1.2 1.2 1
    endloop
  endfacet
  facet normal 0 0 1
    outer loop
      vertex 1.8 0 1
      vertex 1.2 0 1
      vertex 3.2 -0.2 1
    endloop
  endfacet
  facet normal 0 0 1
    outer loop
      vertex 0 4 1
      vertex 1 4 1
      vertex -0.2 4.2 1
    endloop
  endfacet
  facet normal 0 0 1
    outer loop
      vertex 1.2 3 1
      vertex 1.2 4 1
      vertex 1 4 1
    endloop
  endfacet
  facet normal 0 0 1
    outer loop
      vertex 3.2 2 1
      vertex 7 2 1
      vertex 7.2 2.2 1
    endloop
  endfacet
  facet normal 0 0 1
    outer loop
      vertex 1.2 1.2 1
      vertex 1.2 1 1
      vertex 1.8 1 1
    endloop
  endfacet
  facet normal 0 0 1
    outer loop
      vertex 2 0 1
      vertex 1.8 0 1
      vertex 3.2 -0.2 1
    endloop
  endfacet
  facet normal 0 0 1
    outer loop
      vertex 3 4 1
      vertex 3.2 2 1
      vertex 3.2 2.2 1
    endloop
  endfacet
  facet normal 0 0 1
    outer loop
      vertex 1 4 1
      vertex 1.2 2.8 1
      vertex 1.2 3 1
    endloop
  endfacet
  facet normal 0 0 1
    outer loop
      vertex 3.2 4.2 1
      vertex 1 4 1
      vertex 1.2 4 1
    endloop
  endfacet
  facet normal 0 0 1
    outer loop
      vertex 3.2 4.2 1
      vertex 1.2 4 1
      vertex 1.8 4 1
    endloop
  endfacet
  facet normal 0 0 1
    outer loop
      vertex 6 1 1
      vertex 5 1 1
      vertex 5.8 0.8 1
    endloop
  endfacet
  facet normal 0 0 1
    outer loop
      vertex 1.8 1.2 1
      vertex 1.2 1.2 1
      vertex 1.8 1 1
    endloop
  endfacet
  facet normal 0 0 1
    outer loop
      vertex 3.2 2 1
      vertex 7.2 2.2 1
      vertex 3.2 2.2 1
    endloop
  endfacet
  facet normal 0 0 1
    outer loop
      vertex 3.2 4.2 1
      vertex 1.8 4 1
      vertex 2 4 1
    endloop
  endfacet
  facet normal 0 0 1
    outer loop
      vertex 1.8 3 1
      vertex 1.2 3 1
      vertex 1.8 2.8 1
    endloop
  endfacet
  facet normal 0 0 1
    outer loop
      vertex 3.2 4.2 1
      vertex 2 4 1
      vertex 3 4 1
    endloop
  endfacet
  facet normal 0 0 1
    outer loop
      vertex 3.8 0.8 1
      vertex 3.2 1 1
      vertex 3.2 0.8 1
    endloop
  endfacet
  facet normal 0 0 1
    outer loop
      vertex 4 1 1
      vertex 3.2 1 1
      vertex 3.8 0.8 1
    endloop
  endfacet
  facet normal 0 0 1
    outer loop
      vertex 3 4 1
      vertex 3.2 -0.2 1
      vertex 3.2 0.8 1
    endloop
  endfacet
  facet normal 0 0 1
    outer loop
      vertex 4 0 1
      vertex 4 1 1
      vertex 3.8 0.8 1
    endloop
  endfacet
  facet normal 0 0 1
    outer loop
      vertex 7.2 2.2 1
      vertex 7 2 1
      vertex 7.2 -0.2 1
    endloop
  endfacet
  facet normal 0 0 1
    outer loop
      vertex 7 2 1
      vertex 7 0 1
      vertex 7.2 -0.2 1
    endloop
  endfacet
  facet normal 0 0 1
    outer loop
      vertex 7.2 -0.2 1
      vertex 6 0 1
      vertex 5.8 -0.2 1
    endloop
  endfacet
  facet normal 0 0 1
    outer loop
      vertex 5 1 1
      vertex 5 0 1
      vertex 5.2 0.8 1
    endloop
  endfacet
  facet normal 0 0 1
    outer loop
      vertex 7 0 1
      vertex 6 0 1
      vertex 7.2 -0.2 1
    endloop
  endfacet
  facet normal 0 0 1
    outer loop
      vertex 5.8 0.8 1
      vertex 5 1 1
      vertex 5.2 0.8 1
    endloop
  endfacet
  facet normal 0 0 1
    outer loop
      vertex 5.2 0.8 1
      vertex 5 0 1
      vertex 5.2 -0.2 1
    endloop
  endfacet
  facet normal 0 0 1
    outer loop
      vertex 5.2 -0.2 1
      vertex 4 0 1
      vertex 3.8 -0.2 1
    endloop
  endfacet
  facet normal 0 0 1
    outer loop
      vertex 3 4 1
      vertex 3 0 1
      vertex 3.2 -0.2 1
    endloop
  endfacet
  facet normal 0 0 1
    outer loop
      vertex 6 0 1
      vertex 6 1 1
      vertex 5.8 0.8 1
    endloop
  endfacet
  facet normal 0 0 1
    outer loop
      vertex 3 0 1
      vertex 2 0 1
      vertex 3.2 -0.2 1
    endloop
  endfacet
  facet normal 0 0 1
    outer loop
      vertex 3.2 2.2 1
      vertex 3.2 4.2 1
      vertex 3 4 1
    endloop
  endfacet
  facet normal 0 0 1
    outer loop
      vertex 0 0 1
      vertex 0 4 1
      vertex -0.2 4.2 1
    endloop
  endfacet
  facet normal 0 0 1
    outer loop
      vertex 1 4 1
      vertex 1.2 0 1
      vertex 1.2 1 1
    endloop
  endfacet
  facet normal 0 0 1
    outer loop
      vertex 1 4 1
      vertex 1 0 1
      vertex 1.2 0 1
    endloop
  endfacet
  facet normal 0 0 1
    outer loop
      vertex 2 0 1
      vertex 1.8 1.2 1
      vertex 1.8 1 1
    endloop
  endfacet
  facet normal 0 0 1
    outer loop
      vertex 2 0 1
      vertex 1.8 2.8 1
      vertex 1.8 1.2 1
    endloop
  endfacet
  facet normal 0 0 1
    outer loop
      vertex 2 0 1
      vertex 1.8 3 1
      vertex 1.8 2.8 1
    endloop
  endfacet
  facet normal 0 0 1
    outer loop
      vertex 2 0 1
      vertex 1.8 4 1
      vertex 1.8 3 1
    endloop
  endfacet
  facet normal 0 0 1
    outer loop
      vertex 2 0 1
      vertex 2 4 1
      vertex 1.8 4 1
    endloop
  endfacet
  facet normal 1 0 0
    outer loop
      vertex 3.2 -0.2 1
      vertex 3.2 -0.1 0.8
      vertex 3.2 0.8 1
    endloop
  endfacet
  facet normal 1 0 0
    outer loop
      vertex 3.2 0.8 1
      vertex 3.2 -0.1 0.8
      vertex 3.2 0.8 0.8
    endloop
  endfacet
  facet normal 1 0 0
    outer loop
      vertex 3.2 -0.2 0.8
      vertex 3.2 -0.1 0.8
      vertex 3.2 -0.2 1
    endloop
  endfacet
  facet normal 0 -1 0
    outer loop
      vertex -0.1 -0.1 0.8
      vertex -0.1 -0.1 0
      vertex 3.1 -0.1 0
    endloop
  endfacet
  facet normal 0 -1 0
    outer loop
      vertex 3.2 -0.1 0.8
      vertex -0.1 -0.1 0.8
      vertex 3.1 -0.1 0.8
    endloop
  endfacet
  facet normal 0 -1 0
    outer loop
      vertex 3.1 -0.1 0.8
      vertex -0.1 -0.1 0.8
      vertex 3.1 -0.1 0
    endloop
  endfacet
  facet normal -1 0 0
    outer loop
      vertex -0.1 -0.1 0
      vertex -0.1 -0.1 0.8
      vertex -0.1 4.1 0
    endloop
  endfacet
  facet normal -1 0 0
    outer loop
      vertex -0.1 4.1 0
      vertex -0.1 -0.1 0.8
      vertex -0.1 4.1 0.8
    endloop
  endfacet
  facet normal 0 1 0
    outer loop
      vertex -0.1 4.1 0
      vertex -0.1 4.1 0.8
      vertex 3.1 4.1 0
    endloop
  endfacet
  facet normal 0 1 0
    outer loop
      vertex 3.1 4.1 0.8
      vertex -0.1 4.1 0.8
      vertex 3.2 4.1 0.8
    endloop
  endfacet
  facet normal 0 1 0
    outer loop
      vertex 3.1 4.1 0
      vertex -0.1 4.1 0.8
      vertex 3.1 4.1 0.8
    endloop
  endfacet
  facet normal 1 0 0
    outer loop
      vertex 3.2 4.2 1
      vertex 3.2 4.1 0.8
      vertex 3.2 4.2 0.8
    endloop
  endfacet
  facet normal 1 0 0
    outer loop
      vertex 3.2 2.2 1
      vertex 3.2 4.1 0.8
      vertex 3.2 4.2 1
    endloop
  endfacet
  facet normal 1 0 0
    outer loop
      vertex 3.2 2.2 0.8
      vertex 3.2 4.1 0.8
      vertex 3.2 2.2 1
    endloop
  endfacet
  facet normal 0 1 0
    outer loop
      vertex 7.2 2.2 1
      vertex 7.2 2.2 0.8
      vertex 3.2 2.2 1
    endloop
  endfacet
  facet normal 0 1 0
    outer loop
      vertex 3.2 2.2 1
      vertex 7.2 2.2 0.8
      vertex 7.1 2.2 0.8
    endloop
  endfacet
  facet normal 0 1 0
    outer loop
      vertex 3.2 2.2 1
      vertex 7.1 2.2 0.8
      vertex 3.2 2.2 0.8
    endloop
  endfacet
  facet normal 1 0 0
    outer loop
      vertex 7.2 -0.2 1
      vertex 7.2 -0.2 0.8
      vertex 7.2 2.2 0.8
    endloop
  endfacet
  facet normal 1 0 0
    outer loop
      vertex 7.2 2.2 1
      vertex 7.2 -0.2 1
      vertex 7.2 2.2 0.8
    endloop
  endfacet
  facet normal 0 -1 0
    outer loop
      vertex 5.8 -0.2 1
      vertex 5.8 -0.2 0.8
      vertex 7.2 -0.2 0.8
    endloop
  endfacet
  facet normal 0 -1 0
    outer loop
      vertex 7.2 -0.2 1
      vertex 5.8 -0.2 1
      vertex 7.2 -0.2 0.8
    endloop
  endfacet
  facet normal -1 0 0
    outer loop
      vertex 5.8 0.8 1
      vertex 5.8 0.8 0.8
      vertex 5.8 -0.2 1
    endloop
  endfacet
  facet normal -1 0 0
    outer loop
      vertex 5.8 -0.2 1
      vertex 5.8 0.8 0.8
      vertex 5.8 -0.1 0.8
    endloop
  endfacet
  facet normal -1 0 0
    outer loop
      vertex 5.8 -0.2 0.8
      vertex 5.8 -0.2 1
      vertex 5.8 -0.1 0.8
    endloop
  endfacet
  facet normal 0 -1 0
    outer loop
      vertex 5.8 0.8 0.8
      vertex 5.8 0.8 1
      vertex 5.2 0.8 1
    endloop
  endfacet
  facet normal 0 -1 0
    outer loop
      vertex 5.2 0.8 0.8
      vertex 5.8 0.8 0.8
      vertex 5.2 0.8 1
    endloop
  endfacet
  facet normal 1 0 0
    outer loop
      vertex 5.2 -0.2 1
      vertex 5.2 -0.1 0.8
      vertex 5.2 0.8 1
    endloop
  endfacet
  facet normal 1 0 0
    outer loop
      vertex 5.2 0.8 1
      vertex 5.2 -0.1 0.8
      vertex 5.2 0.8 0.8
    endloop
  endfacet
  facet normal 1 0 0
    outer loop
      vertex 5.2 -0.2 0.8
      vertex 5.2 -0.1 0.8
      vertex 5.2 -0.2 1
    endloop
  endfacet
  facet normal 0 -1 0
    outer loop
      vertex 3.8 -0.2 1
      vertex 3.8 -0.2 0.8
      vertex 5.2 -0.2 0.8
    endloop
  endfacet
  facet normal 0 -1 0
    outer loop
      vertex 5.2 -0.2 1
      vertex 3.8 -0.2 1
      vertex 5.2 -0.2 0.8
    endloop
  endfacet
  facet normal -1 0 0
    outer loop
      vertex 3.8 0.8 1
      vertex 3.8 0.8 0.8
      vertex 3.8 -0.2 1
    endloop
  endfacet
  facet normal -1 0 0
    outer loop
      vertex 3.8 -0.2 1
      vertex 3.8 0.8 0.8
      vertex 3.8 -0.1 0.8
    endloop
  endfacet
  facet normal -1 0 0
    outer loop
      vertex 3.8 -0.2 0.8
      vertex 3.8 -0.2 1
      vertex 3.8 -0.1 0.8
    endloop
  endfacet
  facet normal 0 -1 0
    outer loop
      vertex 3.8 0.8 0.8
      vertex 3.8 0.8 1
      vertex 3.2 0.8 1
    endloop
  endfacet
  facet normal 0 -1 0
    outer loop
      vertex 3.2 0.8 0.8
      vertex 3.8 0.8 0.8
      vertex 3.2 0.8 1
    endloop
  endfacet
  facet normal 1 0 0
    outer loop
      vertex 0 4 0
      vertex 0 4 1
      vertex 0 0 1
    endloop
  endfacet
  facet normal 1 0 0
    outer loop
      vertex 0 0 0
      vertex 0 4 0
      vertex 0 0 1
    endloop
  endfacet
  facet normal 0 1 0
    outer loop
      vertex 1 0 1
      vertex 1 0 0.8
      vertex 0 0 1
    endloop
  endfacet
  facet normal 0 1 0
    outer loop
      vertex 0 0 1
      vertex 1 0 0.8
      vertex 3 0 0
    endloop
  endfacet
  facet normal 0 1 0
    outer loop
      vertex 1.8 0 1
      vertex 1.2 0 0.8
      vertex 1.2 0 1
    endloop
  endfacet
  facet normal 0 1 0
    outer loop
      vertex 1.8 0 0.8
      vertex 1.2 0 0.8
      vertex 1.8 0 1
    endloop
  endfacet
  facet normal 0 1 0
    outer loop
      vertex 1 0 0.8
      vertex 1.2 0 0.8
      vertex 3 0 0
    endloop
  endfacet
  facet normal 0 1 0
    outer loop
      vertex 1.2 0 0.8
      vertex 1.8 0 0.8
      vertex 3 0 0
    endloop
  endfacet
  facet normal 0 1 0
    outer loop
      vertex 3 0 1
      vertex 2 0 0.8
      vertex 2 0 1
    endloop
  endfacet
  facet normal 0 1 0
    outer loop
      vertex 3 0 0
      vertex 2 0 0.8
      vertex 3 0 1
    endloop
  endfacet
  facet normal 0 1 0
    outer loop
      vertex 1.8 0 0.8
      vertex 2 0 0.8
      vertex 3 0 0
    endloop
  endfacet
  facet normal 0 1 0
    outer loop
      vertex 0 0 1
      vertex 3 0 0
      vertex 0 0 0
    endloop
  endfacet
  facet normal -1 0 0
    outer loop
      vertex 1 0 0.8
      vertex 1 0 1
      vertex 1 1 0.8
    endloop
  endfacet
  facet normal -1 0 0
    outer loop
      vertex 1 1 0.8
      vertex 1 0 1
      vertex 1 4 1
    endloop
  endfacet
  facet normal -1 0 0
    outer loop
      vertex 1 3 0.8
      vertex 1 4 1
      vertex 1 4 0.8
    endloop
  endfacet
  facet normal -1 0 0
    outer loop
      vertex 1 1 0.8
      vertex 1 4 1
      vertex 1 3 0.8
    endloop
  endfacet
  facet normal -1 0 0
    outer loop
      vertex 1 3 0.8
      vertex 1 3 0
      vertex 1 1 0.8
    endloop
  endfacet
  facet normal -1 0 0
    outer loop
      vertex 1 1 0.8
      vertex 1 3 0
      vertex 1 1 0
    endloop
  endfacet
  facet normal 0 -1 0
    outer loop
      vertex 3 4 0
      vertex 3 4 1
      vertex 2 4 1
    endloop
  endfacet
  facet normal 0 -1 0
    outer loop
      vertex 1.8 4 0.8
      vertex 3 4 0
      vertex 2 4 0.8
    endloop
  endfacet
  facet normal 0 -1 0
    outer loop
      vertex 2 4 0.8
      vertex 3 4 0
      vertex 2 4 1
    endloop
  endfacet
  facet normal 0 -1 0
    outer loop
      vertex 1.2 4 1
      vertex 3 4 0
      vertex 1.8 4 0.8
    endloop
  endfacet
  facet normal 0 -1 0
    outer loop
      vertex 1.2 4 1
      vertex 1.8 4 0.8
      vertex 1.8 4 1
    endloop
  endfacet
  facet normal 0 -1 0
    outer loop
      vertex 1.2 4 0.8
      vertex 3 4 0
      vertex 1.2 4 1
    endloop
  endfacet
  facet normal 0 -1 0
    outer loop
      vertex 1 4 0.8
      vertex 3 4 0
      vertex 1.2 4 0.8
    endloop
  endfacet
  facet normal 0 -1 0
    outer loop
      vertex 0 4 1
      vertex 3 4 0
      vertex 1 4 0.8
    endloop
  endfacet
  facet normal 0 -1 0
    outer loop
      vertex 0 4 1
      vertex 1 4 0.8
      vertex 1 4 1
    endloop
  endfacet
  facet normal 0 -1 0
    outer loop
      vertex 0 4 0
      vertex 3 4 0
      vertex 0 4 1
    endloop
  endfacet
  facet normal 1 0 0
    outer loop
      vertex 1.2 0 1
      vertex 1.2 0 0.8
      vertex 1.2 1 0.8
    endloop
  endfacet
  facet normal 1 0 0
    outer loop
      vertex 1.2 1 1
      vertex 1.2 0 1
      vertex 1.2 1 0.8
    endloop
  endfacet
  facet normal -1 0 0
    outer loop
      vertex 1.8 0 0.8
      vertex 1.8 0 1
      vertex 1.8 1 0.8
    endloop
  endfacet
  facet normal -1 0 0
    outer loop
      vertex 1.8 1 0.8
      vertex 1.8 0 1
      vertex 1.8 1 1
    endloop
  endfacet
  facet normal 0 -1 0
    outer loop
      vertex 1 1 0.8
      vertex 1 1 0
      vertex 2 1 0
    endloop
  endfacet
  facet normal 0 -1 0
    outer loop
      vertex 1.2 1 0.8
      vertex 1 1 0.8
      vertex 2 1 0
    endloop
  endfacet
  facet normal 0 -1 0
    outer loop
      vertex 1.8 1 0.8
      vertex 1.2 1 0.8
      vertex 2 1 0
    endloop
  endfacet
  facet normal 0 -1 0
    outer loop
      vertex 2 1 0.8
      vertex 1.8 1 0.8
      vertex 2 1 0
    endloop
  endfacet
  facet normal 0 -1 0
    outer loop
      vertex 1.8 1 1
      vertex 1.2 1 0.8
      vertex 1.8 1 0.8
    endloop
  endfacet
  facet normal 0 -1 0
    outer loop
      vertex 1.2 1 1
      vertex 1.2 1 0.8
      vertex 1.8 1 1
    endloop
  endfacet
  facet normal 1 0 0
    outer loop
      vertex 1.2 1.2 1
      vertex 1.2 1.2 0.8
      vertex 1.2 2.8 0.8
    endloop
  endfacet
  facet normal 1 0 0
    outer loop
      vertex 1.2 2.8 1
      vertex 1.2 1.2 1
      vertex 1.2 2.8 0.8
    endloop
  endfacet
  facet normal 0 1 0
    outer loop
      vertex 1.2 1.2 0.8
      vertex 1.2 1.2 1
      vertex 1.8 1.2 1
    endloop
  endfacet
  facet normal 0 1 0
    outer loop
      vertex 1.2 1.2 0.8
      vertex 1.8 1.2 1
      vertex 1.8 1.2 0.8
    endloop
  endfacet
  facet normal -1 0 0
    outer loop
      vertex 1.8 2.8 1
      vertex 1.8 2.8 0.8
      vertex 1.8 1.2 1
    endloop
  endfacet
  facet normal -1 0 0
    outer loop
      vertex 1.8 1.2 1
      vertex 1.8 2.8 0.8
      vertex 1.8 1.2 0.8
    endloop
  endfacet
  facet normal 0 -1 0
    outer loop
      vertex 1.8 2.8 0.8
      vertex 1.8 2.8 1
      vertex 1.2 2.8 1
    endloop
  endfacet
  facet normal 0 -1 0
    outer loop
      vertex 1.2 2.8 0.8
      vertex 1.8 2.8 0.8
      vertex 1.2 2.8 1
    endloop
  endfacet
  facet normal 1 0 0
    outer loop
      vertex 1.2 3 1
      vertex 1.2 3 0.8
      vertex 1.2 4 0.8
    endloop
  endfacet
  facet normal 1 0 0
    outer loop
      vertex 1.2 4 1
      vertex 1.2 3 1
      vertex 1.2 4 0.8
    endloop
  endfacet
  facet normal 0 1 0
    outer loop
      vertex 1 3 0
      vertex 1 3 0.8
      vertex 2 3 0
    endloop
  endfacet
  facet normal 0 1 0
    outer loop
      vertex 2 3 0
      vertex 1 3 0.8
      vertex 1.2 3 0.8
    endloop
  endfacet
  facet normal 0 1 0
    outer loop
      vertex 2 3 0
      vertex 1.2 3 0.8
      vertex 1.2 3 1
    endloop
  endfacet
  facet normal 0 1 0
    outer loop
      vertex 1.8 3 0.8
      vertex 1.2 3 1
      vertex 1.8 3 1
    endloop
  endfacet
  facet normal 0 1 0
    outer loop
      vertex 2 3 0
      vertex 1.2 3 1
      vertex 1.8 3 0.8
    endloop
  endfacet
  facet normal 0 1 0
    outer loop
      vertex 2 3 0.8
      vertex 2 3 0
      vertex 1.8 3 0.8
    endloop
  endfacet
  facet normal -1 0 0
    outer loop
      vertex 1.8 3 0.8
      vertex 1.8 3 1
      vertex 1.8 4 0.8
    endloop
  endfacet
  facet normal -1 0 0
    outer loop
      vertex 1.8 4 0.8
      vertex 1.8 3 1
      vertex 1.8 4 1
    endloop
  endfacet
  facet normal 1 0 0
    outer loop
      vertex 2 0 1
      vertex 2 0 0.8
      vertex 2 4 0.8
    endloop
  endfacet
  facet normal 1 0 0
    outer loop
      vertex 2 4 1
      vertex 2 0 1
      vertex 2 4 0.8
    endloop
  endfacet
  facet normal -1 0 0
    outer loop
      vertex 3 0 0
      vertex 3 0 1
      vertex 3 1 0
    endloop
  endfacet
  facet normal -1 0 0
    outer loop
      vertex 3 2 0.8
      vertex 3 0 1
      vertex 3 4 1
    endloop
  endfacet
  facet normal -1 0 0
    outer loop
      vertex 3 2 0
      vertex 3 4 1
      vertex 3 4 0
    endloop
  endfacet
  facet normal -1 0 0
    outer loop
      vertex 3 1 0.8
      vertex 3 0 1
      vertex 3 2 0.8
    endloop
  endfacet
  facet normal -1 0 0
    outer loop
      vertex 3 1 0
      vertex 3 0 1
      vertex 3 1 0.8
    endloop
  endfacet
  facet normal -1 0 0
    outer loop
      vertex 3 2 0.8
      vertex 3 4 1
      vertex 3 2 0
    endloop
  endfacet
  facet normal 1 0 0
    outer loop
      vertex 3.2 1 1
      vertex 3.2 1 0.8
      vertex 3.2 2 0.8
    endloop
  endfacet
  facet normal 1 0 0
    outer loop
      vertex 3.2 2 1
      vertex 3.2 1 1
      vertex 3.2 2 0.8
    endloop
  endfacet
  facet normal 0 1 0
    outer loop
      vertex 3 1 0
      vertex 3 1 0.8
      vertex 4 1 0
    endloop
  endfacet
  facet normal 0 1 0
    outer loop
      vertex 4 1 0
      vertex 3 1 0.8
      vertex 3.2 1 0.8
    endloop
  endfacet
  facet normal 0 1 0
    outer loop
      vertex 4 1 0
      vertex 3.2 1 0.8
      vertex 3.2 1 1
    endloop
  endfacet
  facet normal 0 1 0
    outer loop
      vertex 4 1 0
      vertex 3.2 1 1
      vertex 4 1 1
    endloop
  endfacet
  facet normal 1 0 0
    outer loop
      vertex 4 0 1
      vertex 4 0 0
      vertex 4 1 0
    endloop
  endfacet
  facet normal 1 0 0
    outer loop
      vertex 4 1 1
      vertex 4 0 1
      vertex 4 1 0
    endloop
  endfacet
  facet normal 0 1 0
    outer loop
      vertex 5 0 1
      vertex 5 0 0
      vertex 4 0 1
    endloop
  endfacet
  facet normal 0 1 0
    outer loop
      vertex 4 0 1
      vertex 5 0 0
      vertex 4 0 0
    endloop
  endfacet
  facet normal -1 0 0
    outer loop
      vertex 5 0 0
      vertex 5 0 1
      vertex 5 1 0
    endloop
  endfacet
  facet normal -1 0 0
    outer loop
      vertex 5 1 0
      vertex 5 0 1
      vertex 5 1 1
    endloop
  endfacet
  facet normal 0 1 0
    outer loop
      vertex 5 1 0
      vertex 5 1 1
      vertex 6 1 0
    endloop
  endfacet
  facet normal 0 1 0
    outer loop
      vertex 6 1 0
      vertex 5 1 1
      vertex 6 1 1
    endloop
  endfacet
  facet normal 1 0 0
    outer loop
      vertex 6 0 1
      vertex 6 0 0
      vertex 6 1 0
    endloop
  endfacet
  facet normal 1 0 0
    outer loop
      vertex 6 1 1
      vertex 6 0 1
      vertex 6 1 0
    endloop
  endfacet
  facet normal 0 1 0
    outer loop
      vertex 7 0 1
      vertex 7 0 0
      vertex 6 0 1
    endloop
  endfacet
  facet normal 0 1 0
    outer loop
      vertex 6 0 1
      vertex 7 0 0
      vertex 6 0 0
    endloop
  endfacet
  facet normal -1 0 0
    outer loop
      vertex 7 2 1
      vertex 7 2 0
      vertex 7 0 1
    endloop
  endfacet
  facet normal -1 0 0
    outer loop
      vertex 7 0 1
      vertex 7 2 0
      vertex 7 0 0
    endloop
  endfacet
  facet normal 0 -1 0
    outer loop
      vertex 3 2 0.8
      vertex 3 2 0
      vertex 7 2 0
    endloop
  endfacet
  facet normal 0 -1 0
    outer loop
      vertex 3.2 2 0.8
      vertex 3 2 0.8
      vertex 7 2 0
    endloop
  endfacet
  facet normal 0 -1 0
    outer loop
      vertex 7 2 1
      vertex 3.2 2 0.8
      vertex 7 2 0
    endloop
  endfacet
  facet normal 0 -1 0
    outer loop
      vertex 3.2 2 1
      vertex 3.2 2 0.8
      vertex 7 2 1
    endloop
  endfacet
  facet normal 0 0 -1
    outer loop
      vertex 3.9 0.9 0.8
      vertex 3.9 -0.1 0.8
      vertex 3.8 0.8 0.8
    endloop
  endfacet
  facet normal 0 0 -1
    outer loop
      vertex 3.9 0.9 0.8
      vertex 3.8 0.8 0.8
      vertex 3.1 0.9 0.8
    endloop
  endfacet
  facet normal 0 0 -1
    outer loop
      vertex 3.2 -0.1 0.8
      vertex 3.1 0.9 0.8
      vertex 3.2 0.8 0.8
    endloop
  endfacet
  facet normal 0 0 -1
    outer loop
      vertex 3.8 0.8 0.8
      vertex 3.2 0.8 0.8
      vertex 3.1 0.9 0.8
    endloop
  endfacet
  facet normal 0 0 -1
    outer loop
      vertex 3.1 0.9 0.8
      vertex 3.2 -0.1 0.8
      vertex 3.1 -0.1 0.8
    endloop
  endfacet
  facet normal 0 0 -1
    outer loop
      vertex 3.8 0.8 0.8
      vertex 3.9 -0.1 0.8
      vertex 3.8 -0.1 0.8
    endloop
  endfacet
  facet normal 1 0 0
    outer loop
      vertex 3.1 0.9 0
      vertex 3.1 0.9 0.8
      vertex 3.1 -0.1 0.8
    endloop
  endfacet
  facet normal 1 0 0
    outer loop
      vertex 3.1 -0.1 0
      vertex 3.1 0.9 0
      vertex 3.1 -0.1 0.8
    endloop
  endfacet
  facet normal 0 0 -1
    outer loop
      vertex 3 4 0
      vertex -0.1 4.1 0
      vertex 3.1 4.1 0
    endloop
  endfacet
  facet normal 0 0 -1
    outer loop
      vertex 0 0 0
      vertex -0.1 4.1 0
      vertex 0 4 0
    endloop
  endfacet
  facet normal 0 0 -1
    outer loop
      vertex 3 4 0
      vertex 3.1 2.1 0
      vertex 3 2 0
    endloop
  endfacet
  facet normal 0 0 -1
    outer loop
      vertex 7 0 0
      vertex 7.1 2.1 0
      vertex 7.1 -0.1 0
    endloop
  endfacet
  facet normal 0 0 -1
    outer loop
      vertex 3 2 0
      vertex 3.1 2.1 0
      vertex 7.1 2.1 0
    endloop
  endfacet
  facet normal 0 0 -1
    outer loop
      vertex 6 1 0
      vertex 5.1 0.9 0
      vertex 5 1 0
    endloop
  endfacet
  facet normal 0 0 -1
    outer loop
      vertex 5 1 0
      vertex 5.1 0.9 0
      vertex 5 0 0
    endloop
  endfacet
  facet normal 0 0 -1
    outer loop
      vertex 4 1 0
      vertex 3.1 0.9 0
      vertex 3 1 0
    endloop
  endfacet
  facet normal 0 0 -1
    outer loop
      vertex -0.1 -0.1 0
      vertex -0.1 4.1 0
      vertex 0 0 0
    endloop
  endfacet
  facet normal 0 0 -1
    outer loop
      vertex -0.1 -0.1 0
      vertex 0 0 0
      vertex 3.1 -0.1 0
    endloop
  endfacet
  facet normal 0 0 -1
    outer loop
      vertex 3 1 0
      vertex 3.1 -0.1 0
      vertex 3 0 0
    endloop
  endfacet
  facet normal 0 0 -1
    outer loop
      vertex 0 0 0
      vertex 3 0 0
      vertex 3.1 -0.1 0
    endloop
  endfacet
  facet normal 0 0 -1
    outer loop
      vertex 4 1 0
      vertex 3.9 0.9 0
      vertex 3.1 0.9 0
    endloop
  endfacet
  facet normal 0 0 -1
    outer loop
      vertex 3.1 -0.1 0
      vertex 3 1 0
      vertex 3.1 0.9 0
    endloop
  endfacet
  facet normal 0 0 -1
    outer loop
      vertex 4 0 0
      vertex 3.9 0.9 0
      vertex 4 1 0
    endloop
  endfacet
  facet normal 0 0 -1
    outer loop
      vertex 3.9 0.9 0
      vertex 4 0 0
      vertex 3.9 -0.1 0
    endloop
  endfacet
  facet normal 0 0 -1
    outer loop
      vertex 3.9 -0.1 0
      vertex 5 0 0
      vertex 5.1 -0.1 0
    endloop
  endfacet
  facet normal 0 0 -1
    outer loop
      vertex 0 4 0
      vertex -0.1 4.1 0
      vertex 3 4 0
    endloop
  endfacet
  facet normal 0 0 -1
    outer loop
      vertex 6 0 0
      vertex 5.9 -0.1 0
      vertex 6 1 0
    endloop
  endfacet
  facet normal 0 0 -1
    outer loop
      vertex 5.9 0.9 0
      vertex 6 1 0
      vertex 5.9 -0.1 0
    endloop
  endfacet
  facet normal 0 0 -1
    outer loop
      vertex 7 2 0
      vertex 7.1 2.1 0
      vertex 7 0 0
    endloop
  endfacet
  facet normal 0 0 -1
    outer loop
      vertex 5.9 -0.1 0
      vertex 6 0 0
      vertex 7.1 -0.1 0
    endloop
  endfacet
  facet normal 0 0 -1
    outer loop
      vertex 3 2 0
      vertex 7.1 2.1 0
      vertex 7 2 0
    endloop
  endfacet
  facet normal 0 0 -1
    outer loop
      vertex 6 0 0
      vertex 7 0 0
      vertex 7.1 -0.1 0
    endloop
  endfacet
  facet normal 0 0 -1
    outer loop
      vertex 6 1 0
      vertex 5.9 0.9 0
      vertex 5.1 0.9 0
    endloop
  endfacet
  facet normal 0 0 -1
    outer loop
      vertex 3.1 2.1 0
      vertex 3 4 0
      vertex 3.1 4.1 0
    endloop
  endfacet
  facet normal 0 0 -1
    outer loop
      vertex 5 0 0
      vertex 3.9 -0.1 0
      vertex 4 0 0
    endloop
  endfacet
  facet normal 0 0 -1
    outer loop
      vertex 5.1 -0.1 0
      vertex 5 0 0
      vertex 5.1 0.9 0
    endloop
  endfacet
  facet normal 1 0 0
    outer loop
      vertex 3.1 4.1 0
      vertex 3.1 4.1 0.8
      vertex 3.1 2.1 0.8
    endloop
  endfacet
  facet normal 1 0 0
    outer loop
      vertex 3.1 2.1 0
      vertex 3.1 4.1 0
      vertex 3.1 2.1 0.8
    endloop
  endfacet
  facet normal 0 0 -1
    outer loop
      vertex 3.2 4.1 0.8
      vertex 3.2 2.2 0.8
      vertex 3.1 4.1 0.8
    endloop
  endfacet
  facet normal 0 0 -1
    outer loop
      vertex 7.1 2.1 0.8
      vertex 3.2 2.2 0.8
      vertex 7.1 2.2 0.8
    endloop
  endfacet
  facet normal 0 0 -1
    outer loop
      vertex 3.1 2.1 0.8
      vertex 3.2 2.2 0.8
      vertex 7.1 2.1 0.8
    endloop
  endfacet
  facet normal 0 0 -1
    outer loop
      vertex 3.1 4.1 0.8
      vertex 3.2 2.2 0.8
      vertex 3.1 2.1 0.8
    endloop
  endfacet
  facet normal 1 0 0
    outer loop
      vertex 7.1 -0.1 0.8
      vertex 7.1 -0.1 0
      vertex 7.1 2.1 0
    endloop
  endfacet
  facet normal 1 0 0
    outer loop
      vertex 7.1 2.2 0.8
      vertex 7.1 -0.1 0.8
      vertex 7.1 2.1 0.8
    endloop
  endfacet
  facet normal 1 0 0
    outer loop
      vertex 7.1 2.1 0.8
      vertex 7.1 -0.1 0.8
      vertex 7.1 2.1 0
    endloop
  endfacet
  facet normal 0 0 -1
    outer loop
      vertex 5.8 -0.2 0.8
      vertex 5.8 -0.1 0.8
      vertex 7.2 -0.2 0.8
    endloop
  endfacet
  facet normal 0 0 -1
    outer loop
      vertex 7.2 -0.2 0.8
      vertex 5.8 -0.1 0.8
      vertex 7.1 -0.1 0.8
    endloop
  endfacet
  facet normal 0 0 -1
    outer loop
      vertex 7.2 -0.2 0.8
      vertex 7.1 -0.1 0.8
      vertex 7.1 2.2 0.8
    endloop
  endfacet
  facet normal 0 0 -1
    outer loop
      vertex 7.2 -0.2 0.8
      vertex 7.1 2.2 0.8
      vertex 7.2 2.2 0.8
    endloop
  endfacet
  facet normal 0 -1 0
    outer loop
      vertex 7.1 -0.1 0.8
      vertex 5.8 -0.1 0.8
      vertex 5.9 -0.1 0.8
    endloop
  endfacet
  facet normal 0 -1 0
    outer loop
      vertex 5.9 -0.1 0
      vertex 7.1 -0.1 0
      vertex 5.9 -0.1 0.8
    endloop
  endfacet
  facet normal 0 -1 0
    outer loop
      vertex 7.1 -0.1 0
      vertex 7.1 -0.1 0.8
      vertex 5.9 -0.1 0.8
    endloop
  endfacet
  facet normal 0 0 -1
    outer loop
      vertex 5.9 0.9 0.8
      vertex 5.9 -0.1 0.8
      vertex 5.8 0.8 0.8
    endloop
  endfacet
  facet normal 0 0 -1
    outer loop
      vertex 5.9 0.9 0.8
      vertex 5.8 0.8 0.8
      vertex 5.1 0.9 0.8
    endloop
  endfacet
  facet normal 0 0 -1
    outer loop
      vertex 5.2 -0.1 0.8
      vertex 5.1 0.9 0.8
      vertex 5.2 0.8 0.8
    endloop
  endfacet
  facet normal 0 0 -1
    outer loop
      vertex 5.8 0.8 0.8
      vertex 5.2 0.8 0.8
      vertex 5.1 0.9 0.8
    endloop
  endfacet
  facet normal 0 0 -1
    outer loop
      vertex 5.1 0.9 0.8
      vertex 5.2 -0.1 0.8
      vertex 5.1 -0.1 0.8
    endloop
  endfacet
  facet normal 0 0 -1
    outer loop
      vertex 5.8 0.8 0.8
      vertex 5.9 -0.1 0.8
      vertex 5.8 -0.1 0.8
    endloop
  endfacet
  facet normal 0 0 -1
    outer loop
      vertex 3.8 -0.2 0.8
      vertex 3.8 -0.1 0.8
      vertex 5.2 -0.2 0.8
    endloop
  endfacet
  facet normal 0 0 -1
    outer loop
      vertex 5.2 -0.2 0.8
      vertex 3.8 -0.1 0.8
      vertex 5.2 -0.1 0.8
    endloop
  endfacet
  facet normal 0 -1 0
    outer loop
      vertex 5.1 -0.1 0.8
      vertex 3.8 -0.1 0.8
      vertex 3.9 -0.1 0.8
    endloop
  endfacet
  facet normal 0 -1 0
    outer loop
      vertex 3.9 -0.1 0
      vertex 5.1 -0.1 0
      vertex 3.9 -0.1 0.8
    endloop
  endfacet
  facet normal 0 -1 0
    outer loop
      vertex 5.1 -0.1 0
      vertex 5.1 -0.1 0.8
      vertex 3.9 -0.1 0.8
    endloop
  endfacet
  facet normal 0 -1 0
    outer loop
      vertex 5.1 -0.1 0.8
      vertex 5.2 -0.1 0.8
      vertex 3.8 -0.1 0.8
    endloop
  endfacet
  facet normal 0 0 -1
    outer loop
      vertex 1.8 0 0.8
      vertex 1.8 1 0.8
      vertex 2 0 0.8
    endloop
  endfacet
  facet normal 0 0 -1
    outer loop
      vertex 2 0 0.8
      vertex 1.8 1 0.8
      vertex 2 1 0.8
    endloop
  endfacet
  facet normal 0 0 -1
    outer loop
      vertex 2 0 0.8
      vertex 2 1 0.8
      vertex 2 3 0.8
    endloop
  endfacet
  facet normal 0 0 -1
    outer loop
      vertex 2 3 0.8
      vertex 1.8 3 0.8
      vertex 1.8 4 0.8
    endloop
  endfacet
  facet normal 0 0 -1
    outer loop
      vertex 2 3 0.8
      vertex 1.8 4 0.8
      vertex 2 4 0.8
    endloop
  endfacet
  facet normal 0 0 -1
    outer loop
      vertex 2 3 0.8
      vertex 2 4 0.8
      vertex 2 0 0.8
    endloop
  endfacet
  facet normal 0 0 -1
    outer loop
      vertex 1 0 0.8
      vertex 1 1 0.8
      vertex 1.2 0 0.8
    endloop
  endfacet
  facet normal 0 0 -1
    outer loop
      vertex 1.2 0 0.8
      vertex 1 1 0.8
      vertex 1.2 1 0.8
    endloop
  endfacet
  facet normal 0 0 -1
    outer loop
      vertex 1.1 2.9 0
      vertex 1 3 0
      vertex 2 3 0
    endloop
  endfacet
  facet normal 0 0 -1
    outer loop
      vertex 1.9 2.9 0
      vertex 1.1 2.9 0
      vertex 2 3 0
    endloop
  endfacet
  facet normal 0 0 -1
    outer loop
      vertex 1 1 0
      vertex 1 3 0
      vertex 1.1 1.1 0
    endloop
  endfacet
  facet normal 0 0 -1
    outer loop
      vertex 1 1 0
      vertex 1.1 1.1 0
      vertex 2 1 0
    endloop
  endfacet
  facet normal 0 0 -1
    outer loop
      vertex 1.9 2.9 0
      vertex 2 1 0
      vertex 1.9 1.1 0
    endloop
  endfacet
  facet normal 0 0 -1
    outer loop
      vertex 1.1 1.1 0
      vertex 1.9 1.1 0
      vertex 2 1 0
    endloop
  endfacet
  facet normal 0 0 -1
    outer loop
      vertex 2 1 0
      vertex 1.9 2.9 0
      vertex 2 3 0
    endloop
  endfacet
  facet normal 0 0 -1
    outer loop
      vertex 1.1 1.1 0
      vertex 1 3 0
      vertex 1.1 2.9 0
    endloop
  endfacet
  facet normal 0 0 -1
    outer loop
      vertex 1 3 0.8
      vertex 1 4 0.8
      vertex 1.2 3 0.8
    endloop
  endfacet
  facet normal 0 0 -1
    outer loop
      vertex 1.2 3 0.8
      vertex 1 4 0.8
      vertex 1.2 4 0.8
    endloop
  endfacet
  facet normal 1 0 0
    outer loop
      vertex 2 1 0.8
      vertex 2 1 0
      vertex 2 3 0
    endloop
  endfacet
  facet normal 1 0 0
    outer loop
      vertex 2 3 0.8
      vertex 2 1 0.8
      vertex 2 3 0
    endloop
  endfacet
  facet normal 0 0 -1
    outer loop
      vertex 1.2 1.2 0.8
      vertex 1.9 1.1 0.8
      vertex 1.1 1.1 0.8
    endloop
  endfacet
  facet normal 0 0 -1
    outer loop
      vertex 1.8 1.2 0.8
      vertex 1.9 1.1 0.8
      vertex 1.2 1.2 0.8
    endloop
  endfacet
  facet normal 0 0 -1
    outer loop
      vertex 1.1 2.9 0.8
      vertex 1.2 1.2 0.8
      vertex 1.1 1.1 0.8
    endloop
  endfacet
  facet normal 0 0 -1
    outer loop
      vertex 1.8 2.8 0.8
      vertex 1.9 1.1 0.8
      vertex 1.8 1.2 0.8
    endloop
  endfacet
  facet normal 0 0 -1
    outer loop
      vertex 1.9 2.9 0.8
      vertex 1.9 1.1 0.8
      vertex 1.8 2.8 0.8
    endloop
  endfacet
  facet normal 0 0 -1
    outer loop
      vertex 1.9 2.9 0.8
      vertex 1.8 2.8 0.8
      vertex 1.1 2.9 0.8
    endloop
  endfacet
  facet normal 0 0 -1
    outer loop
      vertex 1.8 2.8 0.8
      vertex 1.2 2.8 0.8
      vertex 1.1 2.9 0.8
    endloop
  endfacet
  facet normal 0 0 -1
    outer loop
      vertex 1.2 1.2 0.8
      vertex 1.1 2.9 0.8
      vertex 1.2 2.8 0.8
    endloop
  endfacet
  facet normal 0 0 -1
    outer loop
      vertex 3 1 0.8
      vertex 3 2 0.8
      vertex 3.2 1 0.8
    endloop
  endfacet
  facet normal 0 0 -1
    outer loop
      vertex 3.2 1 0.8
      vertex 3 2 0.8
      vertex 3.2 2 0.8
    endloop
  endfacet
  facet normal 0 -1 0
    outer loop
      vertex 3.9 0.9 0
      vertex 3.9 0.9 0.8
      vertex 3.1 0.9 0.8
    endloop
  endfacet
  facet normal 0 -1 0
    outer loop
      vertex 3.1 0.9 0
      vertex 3.9 0.9 0
      vertex 3.1 0.9 0.8
    endloop
  endfacet
  facet normal -1 0 0
    outer loop
      vertex 3.9 0.9 0.8
      vertex 3.9 0.9 0
      vertex 3.9 -0.1 0.8
    endloop
  endfacet
  facet normal -1 0 0
    outer loop
      vertex 3.9 -0.1 0.8
      vertex 3.9 0.9 0
      vertex 3.9 -0.1 0
    endloop
  endfacet
  facet normal 1 0 0
    outer loop
      vertex 5.1 0.9 0
      vertex 5.1 0.9 0.8
      vertex 5.1 -0.1 0.8
    endloop
  endfacet
  facet normal 1 0 0
    outer loop
      vertex 5.1 -0.1 0
      vertex 5.1 0.9 0
      vertex 5.1 -0.1 0.8
    endloop
  endfacet
  facet normal 0 -1 0
    outer loop
      vertex 5.9 0.9 0
      vertex 5.9 0.9 0.8
      vertex 5.1 0.9 0.8
    endloop
  endfacet
  facet normal 0 -1 0
    outer loop
      vertex 5.1 0.9 0
      vertex 5.9 0.9 0
      vertex 5.1 0.9 0.8
    endloop
  endfacet
  facet normal -1 0 0
    outer loop
      vertex 5.9 0.9 0.8
      vertex 5.9 0.9 0
      vertex 5.9 -0.1 0.8
    endloop
  endfacet
  facet normal -1 0 0
    outer loop
      vertex 5.9 -0.1 0.8
      vertex 5.9 0.9 0
      vertex 5.9 -0.1 0
    endloop
  endfacet
  facet normal 0 1 0
    outer loop
      vertex 7.1 2.1 0.8
      vertex 7.1 2.1 0
      vertex 3.1 2.1 0.8
    endloop
  endfacet
  facet normal 0 1 0
    outer loop
      vertex 3.1 2.1 0.8
      vertex 7.1 2.1 0
      vertex 3.1 2.1 0
    endloop
  endfacet
  facet normal 1 0 0
    outer loop
      vertex 1.1 2.9 0
      vertex 1.1 2.9 0.8
      vertex 1.1 1.1 0.8
    endloop
  endfacet
  facet normal 1 0 0
    outer loop
      vertex 1.1 1.1 0
      vertex 1.1 2.9 0
      vertex 1.1 1.1 0.8
    endloop
  endfacet
  facet normal 0 -1 0
    outer loop
      vertex 1.9 2.9 0
      vertex 1.9 2.9 0.8
      vertex 1.1 2.9 0.8
    endloop
  endfacet
  facet normal 0 -1 0
    outer loop
      vertex 1.1 2.9 0
      vertex 1.9 2.9 0
      vertex 1.1 2.9 0.8
    endloop
  endfacet
  facet normal -1 0 0
    outer loop
      vertex 1.9 2.9 0.8
      vertex 1.9 2.9 0
      vertex 1.9 1.1 0.8
    endloop
  endfacet
  facet normal -1 0 0
    outer loop
      vertex 1.9 1.1 0.8
      vertex 1.9 2.9 0
      vertex 1.9 1.1 0
    endloop
  endfacet
  facet normal 0 1 0
    outer loop
      vertex 1.9 1.1 0.8
      vertex 1.9 1.1 0
      vertex 1.1 1.1 0.8
    endloop
  endfacet
  facet normal 0 1 0
    outer loop
      vertex 1.1 1.1 0.8
      vertex 1.9 1.1 0
      vertex 1.1 1.1 0
    endloop
  endfacet
endsolid OpenSCAD_Model
